<svg width="300" height="300" viewBox="0 0 300 300" fill="none" xmlns="http://www.w3.org/2000/svg">
<path fill-rule="evenodd" clip-rule="evenodd" d="M37 29C16.5655 29 0 45.5655 0 66V234C0 254.435 16.5655 271 37 271H262C282.435 271 299 254.435 299 234V66C299 45.5655 282.435 29 262 29H37ZM230 135C230 149.912 217.912 162 203 162C188.088 162 176 149.912 176 135C176 120.088 188.088 108 203 108C217.912 108 230 120.088 230 135ZM241 135C241 143.926 237.922 152.133 232.77 158.619L265.373 191.222L257.595 199L224.755 166.16C218.592 170.471 211.092 173 203 173C182.013 173 165 155.987 165 135C165 114.013 182.013 97 203 97C223.987 97 241 114.013 241 135ZM52.2727 193.455C55.2727 195.212 58.5758 196.091 62.1818 196.091C65.8182 196.091 69.1364 195.212 72.1364 193.455C75.1364 191.667 77.5303 189.273 79.3182 186.273C81.1061 183.273 82 179.97 82 176.364V165.818H100.273V176.364C100.273 179.97 101.152 183.273 102.909 186.273C104.697 189.273 107.076 191.667 110.045 193.455C113.045 195.212 116.364 196.091 120 196.091C123.636 196.091 126.939 195.212 129.909 193.455C132.909 191.667 135.288 189.273 137.045 186.273C138.833 183.273 139.727 179.97 139.727 176.364C139.727 172.727 138.833 169.409 137.045 166.409C135.288 163.409 132.909 161.015 129.909 159.227C126.939 157.439 123.636 156.545 120 156.545H109.545V138.273H120C123.636 138.273 126.939 137.394 129.909 135.636C132.909 133.848 135.288 131.47 137.045 128.5C138.833 125.5 139.727 122.182 139.727 118.545C139.727 114.909 138.833 111.606 137.045 108.636C135.288 105.636 132.909 103.258 129.909 101.5C126.939 99.7121 123.636 98.8182 120 98.8182C116.364 98.8182 113.045 99.7121 110.045 101.5C107.076 103.258 104.697 105.636 102.909 108.636C101.152 111.606 100.273 114.909 100.273 118.545V129H82V118.545C82 114.909 81.1061 111.606 79.3182 108.636C77.5303 105.636 75.1364 103.258 72.1364 101.5C69.1364 99.7121 65.8182 98.8182 62.1818 98.8182C58.5758 98.8182 55.2727 99.7121 52.2727 101.5C49.2727 103.258 46.8788 105.636 45.0909 108.636C43.3333 111.606 42.4545 114.909 42.4545 118.545C42.4545 122.182 43.3333 125.5 45.0909 128.5C46.8788 131.47 49.2727 133.848 52.2727 135.636C55.2727 137.394 58.5758 138.273 62.1818 138.273H72.7273V156.545H62.1818C58.5758 156.545 55.2727 157.439 52.2727 159.227C49.2727 161.015 46.8788 163.409 45.0909 166.409C43.3333 169.409 42.4545 172.727 42.4545 176.364C42.4545 179.97 43.3333 183.273 45.0909 186.273C46.8788 189.273 49.2727 191.667 52.2727 193.455ZM67.4545 185.409C65.8788 186.348 64.1212 186.818 62.1818 186.818C60.2727 186.818 58.5152 186.348 56.9091 185.409C55.3333 184.47 54.0758 183.212 53.1364 181.636C52.197 180.03 51.7273 178.273 51.7273 176.364C51.7273 174.424 52.197 172.667 53.1364 171.091C54.0758 169.485 55.3333 168.212 56.9091 167.273C58.5152 166.303 60.2727 165.818 62.1818 165.818H72.7273V176.364C72.7273 178.273 72.2424 180.03 71.2727 181.636C70.3333 183.212 69.0606 184.47 67.4545 185.409ZM72.7273 129H62.1818C60.2727 129 58.5152 128.545 56.9091 127.636C55.3333 126.697 54.0758 125.439 53.1364 123.864C52.197 122.258 51.7273 120.485 51.7273 118.545C51.7273 116.606 52.197 114.848 53.1364 113.273C54.0758 111.697 55.3333 110.439 56.9091 109.5C58.5152 108.561 60.2727 108.091 62.1818 108.091C64.1212 108.091 65.8788 108.561 67.4545 109.5C69.0606 110.439 70.3333 111.697 71.2727 113.273C72.2424 114.848 72.7273 116.606 72.7273 118.545V129ZM120 129H109.545V118.545C109.545 116.606 110 114.848 110.909 113.273C111.848 111.697 113.106 110.439 114.682 109.5C116.288 108.561 118.061 108.091 120 108.091C121.939 108.091 123.697 108.561 125.273 109.5C126.848 110.439 128.106 111.697 129.045 113.273C129.985 114.848 130.455 116.606 130.455 118.545C130.455 120.485 129.985 122.258 129.045 123.864C128.106 125.439 126.848 126.697 125.273 127.636C123.697 128.545 121.939 129 120 129ZM125.273 185.409C123.697 186.348 121.939 186.818 120 186.818C118.061 186.818 116.288 186.348 114.682 185.409C113.106 184.47 111.848 183.212 110.909 181.636C110 180.03 109.545 178.273 109.545 176.364V165.818H120C121.939 165.818 123.697 166.303 125.273 167.273C126.848 168.212 128.106 169.485 129.045 171.091C129.985 172.667 130.455 174.424 130.455 176.364C130.455 178.273 129.985 180.03 129.045 181.636C128.106 183.212 126.848 184.47 125.273 185.409ZM100.273 156.545H82V138.273H100.273V156.545Z" fill="#1F851F"/>
</svg>
