<svg width="27" height="27" viewBox="0 0 27 27" fill="none" xmlns="http://www.w3.org/2000/svg">
<path fill-rule="evenodd" clip-rule="evenodd" d="M0 14C0 12.8954 0.895431 12 2 12H25C26.1046 12 27 12.8954 27 14V23C27 24.1046 26.1046 25 25 25H2C0.895431 25 0 24.1046 0 23V14ZM2 16V14H4V16H2ZM17 14V16H19V14H17ZM14 16V14H16V16H14ZM11 14V16H13V14H11ZM8 16V14H10V16H8ZM5 14V16H7V14H5ZM3 19V17H5V19H3ZM18 17V19H20V17H18ZM23 16V14H25V16H23ZM20 14V16H22V14H20ZM21 19V17H23V19H21ZM15 17V19H17V17H15ZM12 19V17H14V19H12ZM9 17V19H11V17H9ZM6 19V17H8V19H6ZM7 21V23H20V21H7Z" fill="#1F851F"/>
<path d="M22.5 8.5V3.5H25C25.8284 3.5 26.5 4.17157 26.5 5V7C26.5 7.82843 25.8284 8.5 25 8.5H22.5ZM21.5 3.5V8.5H2C1.17157 8.5 0.5 7.82843 0.5 7V5C0.5 4.17157 1.17157 3.5 2 3.5H21.5Z" stroke="#1F851F"/>
<circle cx="24" cy="6" r="0.75" stroke="#1F851F" stroke-width="0.5"/>
<path d="M25.5 7.5L24.5 6.5" stroke="#1F851F" stroke-width="0.5"/>
</svg>
